# xmcd CD database file
#
# Track frame offsets:
#	150
#	13261
#	26605
#	39385
#	52313
#	65663
#	79889
#	92467
#	105459
#	119478
#	133619
#	147346
#	160749
#	173678
#	186951
#	200625
#	213122
#	225726
#	239122
#	252073
#	264586
#	277204
#	290874
#	306035
#
# Disc length: 4240 seconds
#
# Revision: 0
# Processed by: cddbd v1.5.1PL0 Copyright (c) Steve Scherf et al.
# Submitted via: CDex 1.51
#
DISCID=6d108e18
DTITLE=Blind Lemon Jefferson - The Very Best of Blind Lemon Jefferson
DYEAR=1900
DGENRE=Blues
TTITLE0=Gto The Blues
TTITLE1=Long Lonesome Blues
TTITLE2=Booster Blues
TTITLE3=Dry Southern Blues
TTITLE4=Black Horse Blues
TTITLE5=Corrina Blues
TTITLE6=Jack O'Diamond Blues
TTITLE7=Beggin Back
TTITLE8=That Black Snake Moan
TTITLE9=Wartime Blues
TTITLE10=Broke And Hngry
TTITLE11=Rabit Foot Blues
TTITLE12=Bad Luck Blues
TTITLE13=Easy Rider Blues
TTITLE14=Matchbox Blues
TTITLE15=Prison Cell Blues
TTITLE16=Blind Lemon's Penitentiary Blues
TTITLE17=Hot Dongs
TTITLE18=See That My Grave Is Kept Clean
TTITLE19=Gone Dead On You Blues
TTITLE20=One Dime Blues
TTITLE21=Lemon's Worried Blues
TTITLE22=Pneumonia Blues
TTITLE23=That Crawlin' Baby Blues
EXTD=
EXTT0=
EXTT1=
EXTT2=
EXTT3=
EXTT4=
EXTT5=
EXTT6=
EXTT7=
EXTT8=
EXTT9=
EXTT10=
EXTT11=
EXTT12=
EXTT13=
EXTT14=
EXTT15=
EXTT16=
EXTT17=
EXTT18=
EXTT19=
EXTT20=
EXTT21=
EXTT22=
EXTT23=
PLAYORDER=
